<svg width="275" height="235" viewBox="0 0 275 235" fill="none" xmlns="http://www.w3.org/2000/svg">
<path d="M126.837 401.723C120.67 407.889 111.141 407.889 104.974 401.723L4.63157 301.941C-1.53474 295.774 -1.53474 286.245 4.63157 280.078L217.089 67.0603C223.255 60.894 232.785 60.894 238.951 67.0603L339.294 167.403C345.46 173.569 345.46 183.099 339.294 189.265L126.837 401.723Z" fill="#FFC200"/>
<path d="M119.997 213.015C128.309 204.689 134.691 197.585 134.253 197.147C133.815 196.71 126.722 203.105 118.41 211.431C110.098 219.756 103.716 226.86 104.154 227.298C104.592 227.735 111.685 221.341 119.997 213.015Z" fill="#FFDA00"/>
<path d="M118.243 212.978C126.577 221.283 133.688 227.661 134.125 227.222C134.562 226.783 128.16 219.695 119.825 211.39C111.491 203.084 104.38 196.707 103.943 197.146C103.506 197.584 109.908 204.673 118.243 212.978Z" fill="#FFDA00"/>
<path d="M221.68 39.8026C221.68 61.665 220.559 79.6033 219.438 79.6033C218.316 79.6033 217.195 61.665 217.195 39.8026C217.195 17.9403 218.316 0.00195313 219.438 0.00195313C220.559 0.00195313 221.68 17.9403 221.68 39.8026Z" fill="#FFDA00"/>
<path d="M219.435 42.0451C241.417 42.0451 259.236 41.0412 259.236 39.8028C259.236 38.5645 241.417 37.5605 219.435 37.5605C197.454 37.5605 179.635 38.5645 179.635 39.8028C179.635 41.0412 197.454 42.0451 219.435 42.0451Z" fill="#FFDA00"/>
</svg>
