<svg width="13" height="16" viewBox="0 0 13 16" fill="none" xmlns="http://www.w3.org/2000/svg">
<path d="M11.462 3.17459C10.3632 1.4441 8.54923 0.470703 6.50853 0.470703C4.48528 0.470703 2.67132 1.4441 1.5376 3.17459C0.403882 4.86902 0.142254 7.03212 0.839929 8.92484C1.03179 9.42957 1.3283 9.95232 1.71202 10.421L6.12481 15.7927C6.22946 15.9009 6.33412 15.973 6.49109 15.973C6.64807 15.973 6.75272 15.9009 6.85737 15.7927L11.2876 10.421C11.6713 9.95232 11.9853 9.44759 12.1597 8.92484C12.8574 7.03212 12.5957 4.86902 11.462 3.17459ZM6.50853 9.55575C5.00853 9.55575 3.77016 8.27591 3.77016 6.72568C3.77016 5.17546 5.00853 3.89562 6.50853 3.89562C8.00853 3.89562 9.24691 5.17546 9.24691 6.72568C9.24691 8.27591 8.02598 9.55575 6.50853 9.55575Z" fill="#BDBDBD"/>
</svg>
