<svg width="18" height="20" viewBox="0 0 18 20" fill="none" xmlns="http://www.w3.org/2000/svg">
<path d="M15.6164 3.48837C14.1512 1.25581 11.7326 0 9.0117 0C6.31403 0 3.89542 1.25581 2.3838 3.48837C0.872169 5.67442 0.523331 8.46512 1.45356 10.907C1.70938 11.5581 2.10473 12.2326 2.61635 12.8372L8.50008 19.7674C8.63961 19.907 8.77915 20 8.98845 20C9.19775 20 9.33729 19.907 9.47682 19.7674L15.3838 12.8372C15.8954 12.2326 16.314 11.5814 16.5466 10.907C17.4768 8.46512 17.128 5.67442 15.6164 3.48837ZM9.0117 11.7209C7.0117 11.7209 5.36054 10.0698 5.36054 8.06977C5.36054 6.06977 7.0117 4.4186 9.0117 4.4186C11.0117 4.4186 12.6629 6.06977 12.6629 8.06977C12.6629 10.0698 11.035 11.7209 9.0117 11.7209Z" fill="#664EF9"/>
</svg>
