<svg width="10" height="15" viewBox="0 0 10 15" fill="none" xmlns="http://www.w3.org/2000/svg">
<path d="M7.72746 0L2.2729 0C1.33199 0 0.568359 0.763626 0.568359 1.70454V13.2955C0.568359 14.2364 1.33199 15 2.2729 15H7.72746C8.66836 15 9.43199 14.2364 9.43199 13.2955V1.70454C9.43199 0.763626 8.66836 0 7.72746 0ZM5.00019 14.3182C4.43427 14.3182 3.97746 13.8614 3.97746 13.2955C3.97746 12.7295 4.43427 12.2727 5.00019 12.2727C5.56611 12.2727 6.02292 12.7295 6.02292 13.2955C6.02292 13.8614 5.56608 14.3182 5.00019 14.3182ZM8.06837 11.5909H1.93201V2.04546H8.06837V11.5909Z" fill="#664EF9"/>
</svg>
