<svg width="20" height="20" viewBox="0 0 20 20" fill="current" xmlns="http://www.w3.org/2000/svg">
<path d="M9.99731 4.86894C7.15795 4.86894 4.86644 7.16045 4.86644 9.99982C4.86644 12.8392 7.15795 15.1307 9.99731 15.1307C12.8367 15.1307 15.1282 12.8392 15.1282 9.99982C15.1282 7.16045 12.8367 4.86894 9.99731 4.86894ZM9.99731 13.3345C8.16111 13.3345 6.66262 11.836 6.66262 9.99982C6.66262 8.16361 8.16111 6.66512 9.99731 6.66512C11.8335 6.66512 13.332 8.16361 13.332 9.99982C13.332 11.836 11.8335 13.3345 9.99731 13.3345ZM15.3383 3.46302C14.6754 3.46302 14.14 3.99837 14.14 4.66131C14.14 5.32424 14.6754 5.85959 15.3383 5.85959C16.0013 5.85959 16.5366 5.32674 16.5366 4.66131C16.5368 4.50389 16.5059 4.34798 16.4458 4.20251C16.3856 4.05704 16.2974 3.92486 16.1861 3.81355C16.0748 3.70224 15.9426 3.61398 15.7971 3.55383C15.6516 3.49368 15.4957 3.46282 15.3383 3.46302ZM19.9989 9.99982C19.9989 8.61891 20.0114 7.25051 19.9338 5.8721C19.8563 4.27105 19.4911 2.85012 18.3203 1.67935C17.147 0.506076 15.7286 0.143338 14.1275 0.0657868C12.7466 -0.0117642 11.3782 0.000744099 9.99981 0.000744099C8.61891 0.000744099 7.25051 -0.0117642 5.8721 0.0657868C4.27105 0.143338 2.85012 0.508578 1.67935 1.67935C0.506076 2.85262 0.143338 4.27105 0.0657868 5.8721C-0.0117642 7.25301 0.000744099 8.62141 0.000744099 9.99982C0.000744099 11.3782 -0.0117642 12.7491 0.0657868 14.1275C0.143338 15.7286 0.508578 17.1495 1.67935 18.3203C2.85262 19.4936 4.27105 19.8563 5.8721 19.9338C7.25301 20.0114 8.62141 19.9989 9.99981 19.9989C11.3807 19.9989 12.7491 20.0114 14.1275 19.9338C15.7286 19.8563 17.1495 19.4911 18.3203 18.3203C19.4936 17.147 19.8563 15.7286 19.9338 14.1275C20.0139 12.7491 19.9989 11.3807 19.9989 9.99982ZM17.7974 15.8987C17.6148 16.354 17.3947 16.6942 17.0419 17.0444C16.6892 17.3972 16.3515 17.6173 15.8962 17.7999C14.5803 18.3228 11.4558 18.2052 9.99731 18.2052C8.53885 18.2052 5.4118 18.3228 4.09593 17.8024C3.64064 17.6198 3.30041 17.3997 2.95018 17.0469C2.59745 16.6942 2.37731 16.3565 2.19469 15.9012C1.67434 14.5828 1.79192 11.4583 1.79192 9.99982C1.79192 8.54136 1.67434 5.4143 2.19469 4.09844C2.37731 3.64314 2.59745 3.30291 2.95018 2.95268C3.30291 2.60245 3.64064 2.37981 4.09593 2.19719C5.4118 1.67685 8.53885 1.79442 9.99731 1.79442C11.4558 1.79442 14.5828 1.67685 15.8987 2.19719C16.354 2.37981 16.6942 2.59995 17.0444 2.95268C17.3972 3.30542 17.6173 3.64314 17.7999 4.09844C18.3203 5.4143 18.2027 8.54136 18.2027 9.99982C18.2027 11.4583 18.3203 14.5828 17.7974 15.8987Z" fill="white"/>
</svg>
