<svg width="15" height="16" viewBox="0 0 15 16" fill="current" xmlns="http://www.w3.org/2000/svg">
<path d="M12.0557 2.98872C11.4072 2.3355 10.6354 1.81763 9.78508 1.46518C8.93479 1.11272 8.02295 0.932705 7.10251 0.935581C3.24438 0.935581 0.104181 4.07578 0.104181 7.93656C0.104181 9.17021 0.427385 10.3765 1.03935 11.4362L0.0458984 15.0647L3.75744 14.0907C4.78353 14.6496 5.93319 14.9429 7.10163 14.9437H7.10428C10.9624 14.9437 14.1053 11.8035 14.1053 7.94274C14.1076 7.02262 13.9276 6.11115 13.5757 5.26099C13.2237 4.41083 12.7068 3.63883 12.0548 2.9896L12.0557 2.98872ZM7.10428 13.7622C6.06151 13.7624 5.03789 13.482 4.1407 12.9506L3.92788 12.8235L1.7255 13.4001L2.31362 11.2534L2.17586 11.0326C1.59106 10.1061 1.28201 9.03222 1.28485 7.93656C1.28672 6.39303 1.90089 4.9133 2.99258 3.82211C4.08427 2.73091 5.56428 2.11741 7.10781 2.11625C8.66113 2.11625 10.1244 2.7238 11.222 3.82145C11.7637 4.36117 12.1931 5.00289 12.4853 5.70951C12.7775 6.41613 12.9268 7.17366 12.9246 7.93833C12.9219 11.1501 10.3116 13.7613 7.10428 13.7613V13.7622ZM10.2948 9.40246C10.1208 9.31415 9.25985 8.89204 9.10002 8.83376C8.94018 8.77548 8.82362 8.74545 8.70529 8.92206C8.5896 9.09603 8.25315 9.49076 8.15072 9.60909C8.04828 9.72478 7.94673 9.74155 7.77276 9.65325C7.5988 9.56494 7.03275 9.38038 6.36515 8.78431C5.8459 8.32069 5.49356 7.7467 5.39112 7.57273C5.28869 7.39877 5.37964 7.30252 5.46883 7.21686C5.54919 7.13915 5.6428 7.01287 5.73111 6.91043C5.81941 6.808 5.84679 6.73647 5.90507 6.61814C5.96335 6.50245 5.93509 6.40002 5.89094 6.31171C5.84679 6.2234 5.49621 5.36241 5.35315 5.01183C5.21274 4.6692 5.06615 4.71689 4.95842 4.71071C4.85598 4.70541 4.7403 4.70541 4.62462 4.70541C4.50894 4.70541 4.31819 4.74956 4.15836 4.92352C3.99852 5.09749 3.54551 5.52225 3.54551 6.38324C3.54551 7.24423 4.1716 8.0752 4.25991 8.19353C4.34822 8.30921 5.49356 10.078 7.24822 10.8348C7.66503 11.0141 7.99088 11.1218 8.24432 11.2048C8.66378 11.3373 9.04438 11.3178 9.34551 11.2737C9.68196 11.2242 10.3805 10.8516 10.5271 10.4427C10.6736 10.0338 10.6736 9.68415 10.6295 9.61174C10.588 9.53403 10.4723 9.49076 10.2957 9.40157L10.2948 9.40246Z" fill="white"/>
</svg>
