<svg width="20" height="12" viewBox="0 0 20 12" fill="none" xmlns="http://www.w3.org/2000/svg">
<path d="M19.5414 0.790064C19.6812 0.334258 19.5414 0 18.8807 0H16.6919C16.135 0 15.8805 0.289168 15.7407 0.606761C15.7407 0.606761 14.6279 3.272 13.0509 5.00014C12.5419 5.503 12.3093 5.66179 12.0319 5.66179C11.8931 5.66179 11.6915 5.503 11.6915 5.04719V0.790064C11.6915 0.243097 11.5308 0 11.0667 0H7.62734C7.28001 0 7.07041 0.252899 7.07041 0.494035C7.07041 1.01159 7.85889 1.13118 7.93974 2.58976V5.75393C7.93974 6.44696 7.81298 6.57341 7.53352 6.57341C6.79194 6.57341 4.98741 3.89836 3.91647 0.836134C3.70787 0.241136 3.49728 0.000980624 2.93835 0.000980624H0.750557C0.12476 0.000980624 0 0.290148 0 0.607741C0 1.17823 0.741575 4.00129 3.45436 7.73497C5.26288 10.2845 7.80899 11.6667 10.1285 11.6667C11.5189 11.6667 11.6905 11.3599 11.6905 10.8305V8.90341C11.6905 8.28978 11.8233 8.16628 12.2634 8.16628C12.5868 8.16628 13.1437 8.32703 14.4422 9.55526C15.9254 11.0119 16.1709 11.6657 17.0043 11.6657H19.1921C19.8169 11.6657 20.1293 11.3589 19.9497 10.7531C19.753 10.1503 19.0444 9.27295 18.1042 8.23489C17.5932 7.64283 16.8296 7.00569 16.5971 6.68711C16.2727 6.2764 16.3665 6.09505 16.5971 5.73041C16.5981 5.73139 19.264 2.04377 19.5414 0.790064Z" fill="white"/>
</svg>
