<svg width="15" height="16" viewBox="0 0 15 16" fill="none" xmlns="http://www.w3.org/2000/svg">
<path d="M6.90987 0.969943C5.73504 0.985811 3.20717 1.17867 1.79311 2.47434C0.743387 3.51795 0.376596 5.05652 0.333875 6.96188C0.297257 8.85992 0.254536 12.4241 3.69053 13.3951V14.872C3.69053 14.872 3.66734 15.464 4.05794 15.5861C4.54007 15.7386 4.81471 15.2815 5.27244 14.7933L6.12686 13.829C8.47652 14.0243 10.2769 13.5733 10.4844 13.5062C10.9604 13.3536 13.6464 13.0112 14.0858 9.44642C14.5374 5.76569 13.8661 3.44655 12.6577 2.39683L12.6516 2.39561C12.2854 2.05994 10.8207 0.991914 7.54337 0.979708C7.54337 0.979708 7.30169 0.96445 6.90987 0.969943ZM6.95077 2.00562C7.28338 2.00379 7.48783 2.01783 7.48783 2.01783C10.2586 2.02393 11.5836 2.86005 11.8948 3.14079C12.914 4.01291 13.4377 6.10441 13.0544 9.17789C12.6882 12.1562 10.5094 12.3454 10.1066 12.4735C9.93575 12.5284 8.34897 12.919 6.35206 12.7909C6.35206 12.7909 4.86353 14.5858 4.3997 15.0496C4.32647 15.1289 4.24103 15.1534 4.1861 15.1411C4.10676 15.1228 4.08235 15.0252 4.08845 14.8909L4.10066 12.4381C1.18891 11.6325 1.35979 8.592 1.39031 7.00522C1.42693 5.41843 1.72597 4.11727 2.61091 3.23843C3.80527 2.1582 5.95231 2.01173 6.95015 2.00562H6.95077ZM7.17047 3.59241C7.14646 3.59233 7.12266 3.59699 7.10045 3.60612C7.07824 3.61526 7.05806 3.62869 7.04105 3.64564C7.02404 3.66259 7.01054 3.68274 7.00133 3.70492C6.99212 3.7271 6.98738 3.75087 6.98738 3.77489C6.98738 3.82345 7.00667 3.87002 7.04101 3.90435C7.07535 3.93869 7.12191 3.95798 7.17047 3.95798C7.6242 3.94932 8.07515 4.03062 8.49729 4.19717C8.91943 4.36372 9.3044 4.61223 9.62999 4.92836C10.2952 5.57528 10.6193 6.44191 10.6315 7.57707C10.6315 7.60111 10.6362 7.62492 10.6454 7.64714C10.6546 7.66935 10.6681 7.68953 10.6851 7.70653C10.7021 7.72354 10.7223 7.73702 10.7445 7.74622C10.7667 7.75542 10.7905 7.76016 10.8146 7.76016V7.75467C10.8631 7.75467 10.9097 7.73538 10.944 7.70104C10.9784 7.6667 10.9977 7.62014 10.9977 7.57158C11.0203 7.03774 10.9341 6.50487 10.7441 6.00544C10.5542 5.50601 10.2646 5.05046 9.89303 4.66654C9.16677 3.95859 8.2501 3.59241 7.16986 3.59241H7.17047ZM4.75734 4.01352C4.62755 3.99502 4.49532 4.02082 4.38201 4.08675H4.37468C4.12446 4.23323 3.89376 4.41632 3.67406 4.66044C3.50927 4.85573 3.41712 5.05042 3.39271 5.23961C3.37835 5.35057 3.38877 5.46334 3.42322 5.56979L3.43543 5.57589C3.62354 6.12891 3.869 6.66074 4.16779 7.16267C4.55509 7.86563 5.03094 8.51603 5.58369 9.09794L5.602 9.12235L5.62641 9.14066L5.64472 9.15897L5.66303 9.17728C6.24722 9.73143 6.89935 10.2092 7.60379 10.5993C8.40939 11.0387 8.89885 11.2462 9.19179 11.3316V11.3377C9.27724 11.3622 9.35535 11.3744 9.43469 11.3744C9.68475 11.3561 9.9215 11.2547 10.1072 11.0863C10.3453 10.8727 10.5345 10.6359 10.6748 10.3857V10.3796C10.8152 10.1171 10.7664 9.86631 10.565 9.69543C10.1591 9.34035 9.71963 9.02558 9.25282 8.75556C8.94157 8.58468 8.62421 8.68843 8.49605 8.85931L8.22141 9.20658C8.08104 9.37746 7.82472 9.35305 7.82472 9.35305L7.81739 9.35915C5.91325 8.87091 5.4067 6.94297 5.4067 6.94297C5.4067 6.94297 5.38229 6.68054 5.55928 6.54627L5.90105 6.27163C6.06583 6.13737 6.18179 5.82001 6.0048 5.50876C5.73514 5.04171 5.42034 4.60223 5.06493 4.19661C4.98762 4.10073 4.87848 4.03576 4.75734 4.01352ZM7.48722 4.55669C7.43866 4.55685 7.39216 4.57629 7.35793 4.61074C7.32371 4.64519 7.30458 4.69183 7.30474 4.74039C7.3049 4.78895 7.32435 4.83545 7.3588 4.86967C7.39325 4.90389 7.43988 4.92303 7.48844 4.92287C8.0992 4.93347 8.68082 5.18587 9.10574 5.62471C9.29745 5.83619 9.44482 6.08395 9.53916 6.35334C9.63351 6.62274 9.6729 6.90831 9.65501 7.19319C9.65517 7.24164 9.67453 7.28806 9.70885 7.32226C9.74317 7.35646 9.78965 7.37567 9.8381 7.37567L9.8442 7.38299C9.8683 7.38299 9.89216 7.37824 9.91441 7.369C9.93667 7.35976 9.95688 7.34622 9.97389 7.32915C9.9909 7.31209 10.0044 7.29183 10.0135 7.26955C10.0227 7.24726 10.0274 7.22339 10.0273 7.19929C10.0456 6.47303 9.81979 5.86273 9.37427 5.37449C8.92875 4.88625 8.30624 4.61161 7.51285 4.55669C7.50432 4.55609 7.49575 4.55609 7.48722 4.55669ZM7.78627 5.54476C7.76178 5.54404 7.7374 5.54815 7.7145 5.55686C7.6916 5.56556 7.67064 5.57869 7.65282 5.59549C7.635 5.61229 7.62066 5.63244 7.61062 5.65479C7.60059 5.67713 7.59505 5.70123 7.59433 5.72572C7.59361 5.7502 7.59771 5.77459 7.60642 5.79749C7.61512 5.82038 7.62825 5.84134 7.64505 5.85917C7.66186 5.87699 7.68201 5.89133 7.70435 5.90136C7.7267 5.9114 7.7508 5.91694 7.77528 5.91766C8.37948 5.94817 8.67243 6.25332 8.70904 6.88194C8.71063 6.92943 8.73061 6.97445 8.76478 7.00747C8.79895 7.0405 8.84461 7.05895 8.89213 7.05892H8.89824C8.92283 7.05816 8.94701 7.05245 8.96934 7.04213C8.99167 7.03181 9.0117 7.0171 9.02822 6.99887C9.04473 6.98064 9.05741 6.95927 9.06549 6.93603C9.07357 6.9128 9.07688 6.88817 9.07522 6.86363C9.0325 6.04582 8.58698 5.58749 7.79359 5.54476C7.79115 5.54472 7.78871 5.54472 7.78627 5.54476Z" fill="white"/>
</svg>
