<svg width="12" height="15" viewBox="0 0 12 15" fill="current" xmlns="http://www.w3.org/2000/svg">
<path d="M10.2731 2.94186C9.24757 1.37907 7.55454 0.5 5.64989 0.5C3.76152 0.5 2.0685 1.37907 1.01036 2.94186C-0.0477828 4.47209 -0.291969 6.42558 0.359194 8.13488C0.538264 8.5907 0.815008 9.06279 1.17315 9.48605L5.29175 14.3372C5.38943 14.4349 5.4871 14.5 5.63361 14.5C5.78012 14.5 5.8778 14.4349 5.97547 14.3372L10.1104 9.48605C10.4685 9.06279 10.7615 8.60698 10.9243 8.13488C11.5755 6.42558 11.3313 4.47209 10.2731 2.94186ZM5.64989 8.70465C4.24989 8.70465 3.09408 7.54884 3.09408 6.14884C3.09408 4.74884 4.24989 3.59302 5.64989 3.59302C7.04989 3.59302 8.2057 4.74884 8.2057 6.14884C8.2057 7.54884 7.06617 8.70465 5.64989 8.70465Z" fill="current"/>
</svg>
