<svg width="15" height="15" viewBox="0 0 15 15" fill="none" xmlns="http://www.w3.org/2000/svg">
<path d="M7.32328 6.24139H11.4807C11.5823 6.24139 11.6647 6.15952 11.6647 6.05807V3.87278C11.6647 3.77148 11.5826 3.68945 11.4807 3.68945H7.32328C7.22199 3.68945 7.13965 3.77133 7.13965 3.87278V6.05822C7.13965 6.15952 7.22183 6.24139 7.32328 6.24139Z" fill="#664EF9"/>
<path d="M7.32328 2.57178H9.67264C9.77393 2.57178 9.85627 2.4896 9.85627 2.38815V0.203167C9.85627 0.101561 9.77424 0.0195312 9.67264 0.0195312H7.32328C7.22199 0.0195312 7.13965 0.101406 7.13965 0.203167V2.38815C7.13965 2.4896 7.22183 2.57178 7.32328 2.57178Z" fill="#664EF9"/>
<path d="M7.32328 10.6105H13.0685C13.1696 10.6105 13.252 10.5287 13.252 10.4272V8.24223C13.252 8.14093 13.1699 8.05859 13.0685 8.05859H7.32328C7.22199 8.05859 7.13965 8.14078 7.13965 8.24223V10.4272C7.13965 10.5285 7.22183 10.6105 7.32328 10.6105Z" fill="#664EF9"/>
<path d="M14.6558 12.4297H7.32328C7.22199 12.4297 7.13965 12.5114 7.13965 12.6135V14.7981C7.13965 14.8994 7.22183 14.9818 7.32328 14.9818H14.656C14.7573 14.9818 14.8394 14.8996 14.8394 14.7981V12.6132C14.8393 12.5114 14.7574 12.4297 14.6558 12.4297Z" fill="#664EF9"/>
<path d="M6.08742 10.1908H4.84283V0.31072C4.84283 0.139047 4.70363 0 4.53211 0H2.02615C1.85464 0 1.71543 0.139047 1.71543 0.31072V10.1908H0.471C0.351218 10.1908 0.24231 10.2597 0.190731 10.3676C0.138996 10.4755 0.153755 10.6033 0.228639 10.6965L3.03692 14.8841C3.09596 14.9577 3.18498 15 3.27913 15C3.37328 15 3.46215 14.9577 3.52118 14.8841L6.32947 10.6965C6.40435 10.6032 6.41927 10.4755 6.36753 10.3676C6.31595 10.2598 6.2072 10.1908 6.08742 10.1908Z" fill="#664EF9"/>
</svg>
