<svg width="15" height="16" viewBox="0 0 15 16" fill="none" xmlns="http://www.w3.org/2000/svg">
<path d="M7.06676 0.00128043C5.80573 0.0183125 3.09239 0.225318 1.57457 1.61605C0.447827 2.73624 0.0541238 4.3877 0.00826819 6.43286C-0.0310366 8.47016 -0.0768922 12.2958 3.61121 13.3381V14.9234C3.61121 14.9234 3.58632 15.5588 4.00557 15.6898C4.52308 15.8536 4.81787 15.3629 5.30918 14.8389L6.22629 13.8038C8.74835 14.0135 10.6808 13.5293 10.9036 13.4573C11.4145 13.2935 14.2975 12.926 14.7692 9.09969C15.254 5.1489 14.5334 2.6596 13.2363 1.53286L13.2298 1.53155C12.8367 1.17125 11.2645 0.0248633 7.74673 0.0117617C7.74673 0.0117617 7.48732 -0.0046153 7.06676 0.00128043ZM7.11065 1.11295C7.46767 1.11099 7.68712 1.12605 7.68712 1.12605C10.6612 1.1326 12.0834 2.03006 12.4175 2.3314C13.5114 3.26751 14.0735 5.51247 13.6621 8.81146C13.2691 12.0083 10.9304 12.2113 10.4981 12.3489C10.3146 12.4078 8.61144 12.8271 6.46802 12.6895C6.46802 12.6895 4.87027 14.6161 4.37241 15.114C4.2938 15.1991 4.20209 15.2254 4.14314 15.2122C4.05797 15.1926 4.03177 15.0878 4.03832 14.9437L4.05142 12.3109C0.926036 11.4462 1.10946 8.18258 1.14221 6.47937C1.18152 4.77616 1.50251 3.37953 2.45237 2.43621C3.73436 1.27672 6.03894 1.1195 7.10999 1.11295H7.11065ZM7.34648 2.81616C7.3207 2.81608 7.29516 2.82108 7.27132 2.83088C7.24748 2.84069 7.22581 2.8551 7.20755 2.8733C7.1893 2.89149 7.17481 2.91312 7.16493 2.93692C7.15504 2.96073 7.14995 2.98625 7.14995 3.01203C7.14995 3.06415 7.17066 3.11414 7.20751 3.15099C7.24437 3.18785 7.29436 3.20855 7.34648 3.20855C7.83349 3.19926 8.31753 3.28652 8.77064 3.46529C9.22376 3.64407 9.63698 3.91081 9.98645 4.25013C10.7005 4.94452 11.0483 5.87473 11.0614 7.09318C11.0614 7.11899 11.0665 7.14455 11.0764 7.16839C11.0863 7.19223 11.1007 7.2139 11.119 7.23214C11.1372 7.25039 11.1589 7.26487 11.1828 7.27475C11.2066 7.28462 11.2322 7.28971 11.258 7.28971V7.28381C11.3101 7.28381 11.3601 7.2631 11.3969 7.22625C11.4338 7.18939 11.4545 7.13941 11.4545 7.08729C11.4788 6.51428 11.3862 5.94232 11.1824 5.40624C10.9785 4.87017 10.6677 4.38119 10.2688 3.9691C9.48925 3.20921 8.50531 2.81616 7.34582 2.81616H7.34648ZM4.75629 3.26817C4.61698 3.24831 4.47504 3.27601 4.35342 3.34678H4.34555C4.07697 3.504 3.82935 3.70052 3.59352 3.96255C3.41665 4.17218 3.31773 4.38115 3.29153 4.58422C3.27612 4.70333 3.2873 4.82436 3.32428 4.93862L3.33739 4.94517C3.5393 5.53877 3.80277 6.10962 4.12348 6.64838C4.5392 7.40292 5.04997 8.10103 5.64327 8.72564L5.66292 8.75185L5.68912 8.7715L5.70878 8.79115L5.72843 8.8108C6.35549 9.40561 7.05546 9.91848 7.81158 10.3371C8.67629 10.8088 9.20167 11.0315 9.5161 11.1232V11.1298C9.60782 11.156 9.69167 11.1691 9.77683 11.1691C10.0452 11.1495 10.2994 11.0407 10.4987 10.8599C10.7542 10.6306 10.9573 10.3764 11.1079 10.1079V10.1013C11.2586 9.81963 11.2062 9.55039 10.99 9.36697C10.5544 8.98584 10.0827 8.64797 9.58161 8.35814C9.24752 8.17472 8.90688 8.28608 8.76931 8.46951L8.47453 8.84225C8.32386 9.02567 8.04872 8.99947 8.04872 8.99947L8.04086 9.00602C5.99701 8.48195 5.4533 6.41255 5.4533 6.41255C5.4533 6.41255 5.42709 6.13087 5.61707 5.98675L5.98391 5.69196C6.16078 5.54785 6.28525 5.20721 6.09527 4.87311C5.80583 4.3718 5.46794 3.90007 5.08645 3.46469C5.00347 3.36177 4.88632 3.29204 4.75629 3.26817ZM7.68646 3.85119C7.63434 3.85136 7.58443 3.87223 7.54769 3.90921C7.51096 3.94619 7.49042 3.99625 7.4906 4.04837C7.49077 4.10049 7.51164 4.15041 7.54862 4.18714C7.5856 4.22387 7.63565 4.24441 7.68777 4.24424C8.34335 4.25562 8.96764 4.52654 9.42374 4.99758C9.62951 5.22457 9.7877 5.49051 9.88896 5.77967C9.99023 6.06883 10.0325 6.37536 10.0133 6.68114C10.0135 6.73314 10.0343 6.78296 10.0711 6.81968C10.1079 6.85639 10.1578 6.87701 10.2098 6.87701L10.2164 6.88487C10.2422 6.88487 10.2679 6.87976 10.2917 6.86984C10.3156 6.85993 10.3373 6.84539 10.3556 6.82707C10.3738 6.80876 10.3883 6.78701 10.3981 6.76309C10.408 6.73918 10.413 6.71355 10.4129 6.68769C10.4326 5.90814 10.1902 5.25306 9.71197 4.729C9.23376 4.20493 8.56558 3.91015 7.71398 3.85119C7.70482 3.85055 7.69562 3.85055 7.68646 3.85119ZM8.00745 4.91176C7.98117 4.91099 7.955 4.9154 7.93042 4.92474C7.90584 4.93408 7.88335 4.94817 7.86422 4.96621C7.84509 4.98425 7.82969 5.00587 7.81892 5.02986C7.80815 5.05384 7.80221 5.07971 7.80143 5.106C7.80066 5.13228 7.80507 5.15845 7.81441 5.18303C7.82375 5.20761 7.83784 5.2301 7.85588 5.24923C7.87391 5.26836 7.89554 5.28376 7.91953 5.29453C7.94351 5.3053 7.96938 5.31124 7.99566 5.31202C8.64419 5.34477 8.95863 5.67231 8.99794 6.34704C8.99964 6.39802 9.02109 6.44634 9.05776 6.48179C9.09443 6.51724 9.14345 6.53705 9.19446 6.53702H9.20101C9.2274 6.5362 9.25336 6.53007 9.27733 6.51899C9.3013 6.50792 9.32279 6.49213 9.34052 6.47256C9.35826 6.45299 9.37186 6.43005 9.38053 6.40511C9.3892 6.38017 9.39276 6.35374 9.39098 6.32739C9.34513 5.44958 8.86692 4.95762 8.01532 4.91176C8.01269 4.91171 8.01007 4.91171 8.00745 4.91176Z" fill="#1E2123"/>
</svg>
