<svg width="18" height="12" viewBox="0 0 18 12" fill="none" xmlns="http://www.w3.org/2000/svg">
<path d="M14.8583 6.7653C14.569 6.40005 14.6518 6.23756 14.8583 5.91107C14.862 5.90734 17.2495 2.60822 17.4955 1.48938L17.497 1.48863C17.6192 1.0809 17.497 0.78125 16.9059 0.78125H14.9499C14.452 0.78125 14.2224 1.03841 14.0994 1.32614C14.0994 1.32614 13.1036 3.70991 11.6948 5.25512C11.2401 5.70161 11.0299 5.84473 10.7817 5.84473C10.6594 5.84473 10.4694 5.70161 10.4694 5.29388V1.48863C10.4694 0.999651 10.33 0.78125 9.91776 0.78125H6.84225C6.52993 0.78125 6.34433 1.00934 6.34433 1.22178C6.34433 1.68542 7.04873 1.79201 7.12178 3.09645V5.92672C7.12178 6.5469 7.00922 6.66094 6.75951 6.66094C6.09462 6.66094 4.48084 4.26747 3.52449 1.52814C3.33143 0.99667 3.14285 0.781995 2.6412 0.781995H0.684529C0.126227 0.781995 0.0136719 1.03916 0.0136719 1.32688C0.0136719 1.83524 0.678566 4.36288 3.10558 7.70226C4.72309 9.98168 7.00102 11.2168 9.07323 11.2168C10.3188 11.2168 10.4708 10.9425 10.4708 10.4707C10.4708 8.29261 10.3583 8.08688 10.9822 8.08688C11.2714 8.08688 11.7693 8.23 12.9321 9.32946C14.2612 10.6332 14.4796 11.2168 15.2235 11.2168H17.1794C17.737 11.2168 18.0195 10.9425 17.857 10.4013C17.485 9.26312 14.9716 6.92183 14.8583 6.7653Z" fill="#1E2123"/>
</svg>
