<svg width="16" height="16" viewBox="0 0 16 16" fill="none" xmlns="http://www.w3.org/2000/svg">
<path d="M13.7571 2.61983C13.0611 1.91869 12.2326 1.36282 11.32 0.984506C10.4073 0.60619 9.42855 0.412965 8.44058 0.416052C4.29937 0.416052 0.92877 3.78665 0.92877 7.9307C0.92877 9.25487 1.27569 10.5496 1.93256 11.6871L0.866211 15.5818L4.85008 14.5364C5.95145 15.1363 7.18545 15.4511 8.43963 15.452H8.44247C12.5837 15.452 15.9571 12.0814 15.9571 7.93734C15.9596 6.9497 15.7664 5.97136 15.3887 5.05882C15.0109 4.14628 14.456 3.31765 13.7562 2.62078L13.7571 2.61983ZM8.44247 14.1838C7.3232 14.1839 6.22447 13.8831 5.26145 13.3127L5.03301 13.1762L2.66904 13.7951L3.30032 11.4909L3.15245 11.2539C2.52474 10.2594 2.19302 9.10676 2.19606 7.9307C2.19807 6.27393 2.85731 4.68562 4.02909 3.51437C5.20088 2.34311 6.78948 1.6846 8.44626 1.68334C10.1136 1.68334 11.6842 2.33547 12.8624 3.51367C13.4438 4.09299 13.9046 4.78178 14.2183 5.54025C14.532 6.29872 14.6922 7.11183 14.6898 7.9326C14.687 11.38 11.8851 14.1828 8.44247 14.1828V14.1838ZM11.8671 9.50416C11.6804 9.40937 10.7562 8.95629 10.5846 8.89373C10.4131 8.83117 10.288 8.79895 10.1609 8.98852C10.0368 9.17525 9.67564 9.59894 9.56569 9.72595C9.45574 9.85012 9.34673 9.86813 9.16 9.77335C8.97327 9.67856 8.3657 9.48046 7.64911 8.84065C7.09177 8.34302 6.71357 7.72691 6.60362 7.54018C6.49367 7.35346 6.5913 7.25014 6.68703 7.1582C6.77329 7.07478 6.87376 6.93924 6.96855 6.82929C7.06333 6.71934 7.09272 6.64256 7.15528 6.51555C7.21783 6.39138 7.1875 6.28142 7.14011 6.18664C7.09272 6.09185 6.71642 5.16769 6.56286 4.79138C6.41215 4.42361 6.25481 4.4748 6.13917 4.46816C6.02922 4.46248 5.90505 4.46248 5.78088 4.46248C5.65671 4.46248 5.45197 4.50987 5.2804 4.6966C5.10884 4.88333 4.62259 5.33925 4.62259 6.26341C4.62259 7.18758 5.29462 8.07952 5.38941 8.20653C5.4842 8.3307 6.71357 10.2293 8.59697 11.0416C9.04436 11.234 9.39413 11.3496 9.66616 11.4387C10.1164 11.5809 10.5249 11.5601 10.8481 11.5127C11.2093 11.4596 11.959 11.0596 12.1164 10.6207C12.2737 10.1819 12.2737 9.80652 12.2263 9.7288C12.1818 9.64539 12.0576 9.59894 11.868 9.50321L11.8671 9.50416Z" fill="#1E2123"/>
</svg>
